#define ac_02_width 8
#define ac_02_height 8
static unsigned char ac_02_bits[] = {
   0x30, 0x38, 0xfc, 0x3f, 0x3f, 0xfc, 0x38, 0x30 };
