#define calendar_width  8
#define calendar_height 8
static unsigned char calendar_bits[] = {
 0x5a,0xdb,0xff,0x81,0xd5,0x81,0xd5,0xff};
