#define calendar_9x9_width  9
#define calendar_9x9_height 9
static unsigned char calendar_9x9_bits[] = {
 0xc6,0xfe,0xff,0xff,0xff,0xff,0x01,0xff,0x55,0xff,0x01,0xff,
 0x55,0xff,0x01,0xff,0xff,0xff};
